<svg xmlns="http://www.w3.org/2000/svg" xmlns:xlink="http://www.w3.org/1999/xlink" version="1.1" id="Layer_1" x="0px" y="0px" width="100px" height="100px" viewBox="0 0 100 100" enable-background="new 0 0 100 100" xml:space="preserve">
<g>
	<path d="M67.955,31.812c-0.068-4.727-3.365-9.01-7.327-9.52l-3.425-0.44c-3.962-0.51-10.445-0.51-14.408,0l-3.424,0.44   c-3.962,0.51-7.259,4.793-7.327,9.52L32,34.941c0,13.102,0.746,23.383,0.746,23.383h4.443l1.632-25.79l1.146,18.707l1.146,42.327   h6.492l2.232-34.098l0.322-1.146l2.232,35.244h6.492l1.146-42.327l1.146-18.707l1.633,25.79h4.443c0,0,0.746-10.28,0.746-23.383   L67.955,31.812z"/>
	<circle cx="50" cy="13.102" r="6.67"/>
</g>
</svg>